# xmcd
#
# Track frame offsets: 
#        150
#        3457
#        18347
#        35846
#        37569
#        46294
#        51247
#        65168
#        70007
#        70557
#        83446
#        85813
#        96442
#        116182
#
# Disc length: 1694 seconds
#
# Revision: 0
# Processed by: cddbd v1.5.2PL0 Copyright (c) Steve Scherf et al.
# Submitted via: ExactAudioCopy v0.95b4
#
DISCID=b0069c0e
DTITLE=Shane Speal - Surreal
DYEAR=1900
DGENRE=Folk
TTITLE0=Intro - Echoes of Bedouin
TTITLE1=Bela Lugosi's Ghost
TTITLE2=Late Night at the White Rose Bar and Grill
TTITLE3=Hinton R.F.D.
TTITLE4=Cletus goes out on a friday night with a wad of cash and zero 
TTITLE4=thought to Stella's warning
TTITLE5=Damn, this lick rocks
TTITLE6=Jazzbo
TTITLE7=Mumblin' Sumpthin'
TTITLE8=Echoes of Appalachia
TTITLE9=Music from "The Scene..."
TTITLE10=The Speeder
TTITLE11=Interlude - The Tremelation
TTITLE12=Old Scratchy 78 Featuring the Blues of a Lonely Ghost
TTITLE13=Star Spangled Banner
EXTD=
EXTT0=
EXTT1=
EXTT2=
EXTT3=
EXTT4=
EXTT5=
EXTT6=
EXTT7=
EXTT8=
EXTT9=
EXTT10=
EXTT11=
EXTT12=
EXTT13=
PLAYORDER=
